<svg width="90" height="99" viewBox="0 0 90 99" fill="none" xmlns="http://www.w3.org/2000/svg">
<path d="M56.25 32.1703C65.2011 32.1703 73.7855 35.6513 80.1149 41.8475C86.4442 48.0437 90 56.4475 90 65.2102C90 73.9729 86.4442 82.3767 80.1149 88.5728C73.7855 94.769 65.2011 98.25 56.25 98.25V80.0588C60.2728 80.0588 64.1308 78.4944 66.9753 75.7098C69.8198 72.9251 71.4178 69.1483 71.4178 65.2102C71.4178 61.2721 69.8198 57.4952 66.9753 54.7106C64.1308 51.9259 60.2728 50.3615 56.25 50.3615V32.1703Z" fill="#FFB61D"/>
<path d="M54.75 98.25C50.1209 98.25 45.5371 97.3954 41.2604 95.735C36.9837 94.0746 33.0977 91.6409 29.8245 88.5729C26.5512 85.5048 23.9547 81.8625 22.1832 77.854C20.4118 73.8454 19.5 69.549 19.5 65.2102L38.6302 65.2102C38.6302 67.1943 39.0472 69.159 39.8573 70.9922C40.6674 72.8253 41.8547 74.4909 43.3516 75.8939C44.8485 77.2969 46.6255 78.4098 48.5812 79.1691C50.537 79.9284 52.6331 80.3192 54.75 80.3192V98.25Z" fill="#431DC1"/>
<path d="M19.5 12.1726L29.25 6.08628L39 0V67.8186H19.5V12.1726Z" fill="#431DC1"/>
<rect y="50.4292" width="18.2589" height="54.75" transform="rotate(-90 0 50.4292)" fill="#431DC1"/>
</svg>
