<svg xmlns="http://www.w3.org/2000/svg" width="78.356" height="87.76" viewBox="0 0 78.356 87.76">
  <g id="Group_4" data-name="Group 4" transform="translate(260.356 -1700.32)">
    <path id="Icon_ionic-ios-settings" data-name="Icon ionic-ios-settings" d="M29.31,17.339A3.69,3.69,0,0,1,31.678,13.9a14.627,14.627,0,0,0-1.77-4.264,3.74,3.74,0,0,1-1.5.321A3.682,3.682,0,0,1,25.039,4.77,14.583,14.583,0,0,0,20.782,3,3.687,3.687,0,0,1,13.9,3,14.627,14.627,0,0,0,9.632,4.77,3.682,3.682,0,0,1,6.264,9.953a3.618,3.618,0,0,1-1.5-.321A14.951,14.951,0,0,0,3,13.9a3.689,3.689,0,0,1,.007,6.886,14.627,14.627,0,0,0,1.77,4.264,3.684,3.684,0,0,1,4.862,4.862,14.713,14.713,0,0,0,4.264,1.77,3.68,3.68,0,0,1,6.871,0,14.628,14.628,0,0,0,4.264-1.77A3.687,3.687,0,0,1,29.9,25.053a14.713,14.713,0,0,0,1.77-4.264A3.708,3.708,0,0,1,29.31,17.339Zm-11.9,5.967a5.975,5.975,0,1,1,5.975-5.975A5.973,5.973,0,0,1,17.406,23.306Z" transform="translate(-213.678 1697.32)" fill="#6700ee"/>
    <path id="Icon_ionic-ios-settings-2" data-name="Icon ionic-ios-settings" d="M66.754,38.428a8.732,8.732,0,0,1,5.6-8.146,34.611,34.611,0,0,0-4.188-10.09,8.849,8.849,0,0,1-3.552.76,8.712,8.712,0,0,1-7.97-12.264A34.506,34.506,0,0,0,46.574,4.5a8.724,8.724,0,0,1-16.292,0,34.611,34.611,0,0,0-10.09,4.188,8.712,8.712,0,0,1-7.97,12.264,8.561,8.561,0,0,1-3.552-.76A35.376,35.376,0,0,0,4.5,30.3a8.722,8.722,0,0,1,5.6,8.146,8.742,8.742,0,0,1-5.584,8.146,34.611,34.611,0,0,0,4.188,10.09,8.716,8.716,0,0,1,11.5,11.5A34.813,34.813,0,0,0,30.3,72.373a8.708,8.708,0,0,1,16.257,0,34.611,34.611,0,0,0,10.09-4.188,8.725,8.725,0,0,1,11.5-11.5,34.813,34.813,0,0,0,4.188-10.09A8.773,8.773,0,0,1,66.754,38.428ZM38.587,52.547A14.137,14.137,0,1,1,52.724,38.41,14.133,14.133,0,0,1,38.587,52.547Z" transform="translate(-264.856 1715.706)" fill="#6700ee"/>
  </g>
</svg>
