<svg xmlns="http://www.w3.org/2000/svg" width="79.237" height="73.88" viewBox="0 0 79.237 73.88">
  <g id="Group_8" data-name="Group 8" transform="translate(391.414 -1992.406)">
    <g id="Group_7" data-name="Group 7" transform="translate(-91 292.087)">
      <path id="Icon_ionic-ios-settings" data-name="Icon ionic-ios-settings" d="M16.155,10.169a1.845,1.845,0,0,1,1.184-1.721,7.314,7.314,0,0,0-.885-2.132,1.87,1.87,0,0,1-.751.161,1.841,1.841,0,0,1-1.684-2.591A7.292,7.292,0,0,0,11.891,3,1.844,1.844,0,0,1,8.448,3a7.314,7.314,0,0,0-2.132.885A1.841,1.841,0,0,1,4.632,6.476a1.809,1.809,0,0,1-.751-.161A7.475,7.475,0,0,0,3,8.452a1.845,1.845,0,0,1,0,3.443,7.314,7.314,0,0,0,.885,2.132A1.842,1.842,0,0,1,6.32,16.458a7.357,7.357,0,0,0,2.132.885,1.84,1.84,0,0,1,3.435,0,7.314,7.314,0,0,0,2.132-.885,1.844,1.844,0,0,1,2.431-2.431,7.356,7.356,0,0,0,.885-2.132A1.854,1.854,0,0,1,16.155,10.169ZM10.2,13.153a2.987,2.987,0,1,1,2.987-2.987A2.986,2.986,0,0,1,10.2,13.153Z" transform="translate(-238.517 1697.32)" fill="#6700ee"/>
      <path id="Icon_ionic-ios-settings-2" data-name="Icon ionic-ios-settings" d="M35.627,21.464a4.366,4.366,0,0,1,2.8-4.073,17.305,17.305,0,0,0-2.094-5.045,4.424,4.424,0,0,1-1.776.38,4.356,4.356,0,0,1-3.985-6.132A17.253,17.253,0,0,0,25.537,4.5a4.362,4.362,0,0,1-8.146,0,17.305,17.305,0,0,0-5.045,2.094,4.356,4.356,0,0,1-3.985,6.132,4.28,4.28,0,0,1-1.776-.38A17.688,17.688,0,0,0,4.5,17.4a4.365,4.365,0,0,1,.009,8.146A17.305,17.305,0,0,0,6.6,30.591a4.358,4.358,0,0,1,5.752,5.752A17.406,17.406,0,0,0,17.4,38.437a4.354,4.354,0,0,1,8.129,0,17.305,17.305,0,0,0,5.045-2.094,4.362,4.362,0,0,1,5.752-5.752,17.406,17.406,0,0,0,2.094-5.045A4.387,4.387,0,0,1,35.627,21.464ZM21.543,28.523a7.068,7.068,0,1,1,7.068-7.068A7.066,7.066,0,0,1,21.543,28.523Z" transform="translate(-264.856 1705.763)" fill="#6700ee"/>
    </g>
    <path id="Icon_awesome-mobile-alt" data-name="Icon awesome-mobile-alt" d="M31.875,0H5.625A5.626,5.626,0,0,0,0,5.625v48.75A5.626,5.626,0,0,0,5.625,60h26.25A5.626,5.626,0,0,0,37.5,54.375V5.625A5.626,5.626,0,0,0,31.875,0ZM18.75,56.25A3.75,3.75,0,1,1,22.5,52.5,3.746,3.746,0,0,1,18.75,56.25ZM31.875,43.594A1.41,1.41,0,0,1,30.469,45H7.031a1.41,1.41,0,0,1-1.406-1.406V7.031A1.41,1.41,0,0,1,7.031,5.625H30.469a1.41,1.41,0,0,1,1.406,1.406Z" transform="translate(-391.414 2006.287)" fill="#6700ee"/>
  </g>
</svg>
