<svg xmlns="http://www.w3.org/2000/svg" width="72" height="72" viewBox="0 0 72 72">
  <path id="Icon_awesome-pencil-alt" data-name="Icon awesome-pencil-alt" d="M70.019,19.98l-6.483,6.483a1.689,1.689,0,0,1-2.391,0l-15.61-15.61a1.689,1.689,0,0,1,0-2.391l6.483-6.483a6.765,6.765,0,0,1,9.549,0l8.452,8.452A6.739,6.739,0,0,1,70.019,19.98ZM39.966,14.031,3.037,50.961.055,68.048a3.379,3.379,0,0,0,3.91,3.91l17.087-3,36.93-36.93a1.689,1.689,0,0,0,0-2.391l-15.61-15.61a1.706,1.706,0,0,0-2.4,0ZM17.451,47.8a1.961,1.961,0,0,1,0-2.784L39.109,23.355a1.969,1.969,0,1,1,2.785,2.784L20.236,47.8A1.961,1.961,0,0,1,17.451,47.8ZM12.374,59.624h6.75v5.1l-9.071,1.589L5.68,61.944,7.27,52.874h5.1Z" transform="translate(-0.002 -0.007)" fill="#6e00ff"/>
</svg>
