<svg width="520" height="520" viewBox="0 0 520 520" fill="none" xmlns="http://www.w3.org/2000/svg">
<path d="M476.667 311.025C476.667 294.948 464.447 281.862 449.367 281.862H231.314C216.234 281.862 204.014 294.948 204.014 311.025C204.014 327.102 216.212 340.188 231.314 340.188H449.367C464.447 340.21 476.667 327.123 476.667 311.025Z" fill="#B3B1B0"/>
<path d="M75.444 394.052L168.892 488.54C189.974 509.752 219.116 520 251.291 520C283.466 520 312.607 508.907 333.732 487.63L389.806 430.495C400.856 419.358 400.466 400.92 388.961 389.328C377.456 377.737 359.169 377.347 348.141 388.483L290.161 444.968C280.151 455.087 266.284 459.312 250.966 459.312C235.647 459.312 221.802 455.087 211.749 444.968L118.626 350.437C108.594 340.318 103.546 325.52 103.546 310.072C103.546 294.623 108.594 280.67 118.626 270.552L211.467 175.652C221.499 165.533 235.647 161.677 250.944 161.677C266.241 161.677 280.107 165.902 290.139 176.02L348.119 232.483C359.169 243.642 377.456 243.252 388.961 231.66C400.466 220.047 400.856 201.608 389.806 190.472L333.732 133.358C319.477 119.114 301.528 109.134 281.906 104.542L281.169 104.39L334.187 50.1583C345.281 39.0217 344.891 20.5617 333.386 8.97001C321.881 -2.62166 303.572 -2.98999 292.501 8.14667L75.444 226.98C54.3623 248.257 43.334 277.615 43.334 310.072C43.334 342.528 54.3623 372.818 75.444 394.052Z" fill="#E7A41F"/>
<path d="M175.824 494.303C172.048 492.195 168.59 489.562 165.554 486.481C136.803 457.6 107.921 428.848 79.2345 399.88C36.1395 356.373 29.3578 292.911 62.2045 241.28C67.4528 233.388 73.5485 226.093 80.3828 219.526L288.881 10.5948C302.423 -2.96854 321.338 -3.53188 333.926 9.14312C346.059 21.3415 345.344 40.6681 332.236 53.9065C315.574 70.7198 298.891 87.4898 282.208 104.281C281.319 106.925 279.174 108.615 277.333 110.5C258.634 129.48 239.416 147.961 220.978 167.223C218.573 169.736 215.301 171.253 212.918 173.831C182.086 204.663 150.886 235.148 120.488 266.391C95.8961 291.676 96.7195 330.048 121.961 355.81C150.301 384.756 179.139 413.226 207.783 441.913C209.234 443.365 210.729 444.773 212.203 446.203C222.343 452.768 222.473 473.286 216.168 482.408C209.213 492.483 200.134 498.658 187.286 498.181C182.974 498.051 179.421 496.318 175.824 494.303V494.303Z" fill="#070706"/>
</svg>
