<svg width="512" height="512" viewBox="0 0 512 512" fill="none" xmlns="http://www.w3.org/2000/svg">
<g clip-path="url(#clip0_1225_26)">
<path d="M511.85 0H0.15C0.0671573 0 0 0.0671573 0 0.15V511.85C0 511.933 0.0671573 512 0.15 512H511.85C511.933 512 512 511.933 512 511.85V0.15C512 0.0671573 511.933 0 511.85 0Z" fill="#12100E"/>
<path d="M125 173C125 169 123 164 120 162L89 124V118H187L262 284L329 118H422V124L395 150C393 151 392 154 392 157V347C392 350 393 353 395 355L422 380V386H289V380L316 354C319 351 319 350 319 346V193L243 385H233L145 193V322C144 327 146 333 150 337L185 380V385H85V380L120 337C124 333 126 327 125 322V173Z" fill="white"/>
</g>
<defs>
<clipPath id="clip0_1225_26">
<rect width="512" height="512" fill="white"/>
</clipPath>
</defs>
</svg>
